<?xml version="1.0" standalone="no"?>
<!DOCTYPE svg PUBLIC "-//W3C//DTD SVG 20010904//EN"
 "http://www.w3.org/TR/2001/REC-SVG-20010904/DTD/svg10.dtd">
<svg version="1.0" xmlns="http://www.w3.org/2000/svg"
 width="130.000000pt" height="130.000000pt" viewBox="0 0 130.000000 130.000000"
 preserveAspectRatio="xMidYMid meet">

<g transform="translate(0.000000,130.000000) scale(0.100000,-0.100000)"
fill="#000000" stroke="none">
<path d="M975 580 c-3 -6 1 -7 9 -4 18 7 21 14 7 14 -6 0 -13 -4 -16 -10z"/>
<path d="M986 548 c-8 -32 -7 -38 4 -38 6 0 10 8 11 18 0 14 2 14 8 -3 5 -12
4 -21 -3 -24 -6 -2 -19 -10 -28 -19 -15 -12 -18 -13 -18 -1 0 16 -39 -30 -40
-47 0 -17 -42 -25 -57 -12 -9 7 -9 2 2 -18 8 -16 15 -35 15 -41 0 -7 8 -13 18
-13 12 0 17 -9 19 -27 l1 -28 -15 25 c-8 14 -12 18 -10 10 27 -93 36 -133 42
-177 l7 -53 164 0 c90 0 164 3 164 7 0 20 -185 325 -193 317 -3 -3 -4 1 -3 8
1 15 -65 138 -75 138 -4 0 -9 -10 -13 -22z m-26 -146 c0 -5 -6 -9 -12 -10 -7
-1 -25 -4 -40 -8 -17 -4 -28 -2 -28 4 0 9 17 14 68 21 6 0 12 -3 12 -7z"/>
</g>
</svg>
